<?xml version="1.0" encoding="iso-8859-1"?>
<!-- Uploaded to: SVG Repo, www.svgrepo.com, Generator: SVG Repo Mixer Tools -->
<svg fill="#000000" height="800px" width="800px" version="1.1" id="Layer_1" xmlns="http://www.w3.org/2000/svg" xmlns:xlink="http://www.w3.org/1999/xlink" 
	 viewBox="0 0 512 512" xml:space="preserve">
<g transform="translate(1 1)">
	<g>
		<g>
			<path d="M41.667,50.2h93.867c5.12,0,8.533-3.413,8.533-8.533s-3.413-8.533-8.533-8.533H41.667c-5.12,0-8.533,3.413-8.533,8.533
				S36.547,50.2,41.667,50.2z"/>
			<path d="M109.933,67.267H41.667c-5.12,0-8.533,3.413-8.533,8.533s3.413,8.533,8.533,8.533h68.267c5.12,0,8.533-3.413,8.533-8.533
				S115.053,67.267,109.933,67.267z"/>
			<path d="M468.333-1H41.667C17.773-1-1,17.773-1,41.667v273.067v59.733c0,23.893,18.773,42.667,42.667,42.667H203.8v51.2
				c0,8.533-36.693,25.6-59.733,25.6c-5.12,0-8.533,3.413-8.533,8.533s3.413,8.533,8.533,8.533h221.867
				c5.12,0,8.533-3.413,8.533-8.533s-3.413-8.533-8.533-8.533c-23.04,0-59.733-17.067-59.733-25.6v-51.2h162.133
				c23.893,0,42.667-18.773,42.667-42.667v-59.733V41.667C511,17.773,492.227-1,468.333-1z M16.067,41.667
				c0-14.507,11.093-25.6,25.6-25.6h426.667c14.507,0,25.6,11.093,25.6,25.6V306.2H16.067V41.667z M307.907,493.933H201.24
				c11.093-6.827,19.627-15.36,19.627-25.6v-51.2h68.267v51.2C289.133,478.573,297.667,487.107,307.907,493.933z M493.933,374.467
				c0,14.507-11.093,25.6-25.6,25.6H297.667h-85.333H41.667c-14.507,0-25.6-11.093-25.6-25.6v-51.2h477.867V374.467z"/>
			<path d="M229.4,135.533c5.12,0,8.533-3.413,8.533-8.533v-25.6l20.48-9.387c4.267-1.707,5.973-6.827,4.267-11.093
				s-6.827-5.973-11.093-4.267l-25.6,11.093c-3.413,0.853-5.12,4.267-5.12,7.68V127C220.867,132.12,224.28,135.533,229.4,135.533z"
				/>
			<path d="M191.853,179.053l-25.6,11.093c-3.413,0.853-5.12,4.267-5.12,7.68V229.4c0,5.12,3.413,8.533,8.533,8.533
				s8.533-3.413,8.533-8.533v-25.6l20.48-9.387c4.267-1.707,5.973-6.827,4.267-11.093S196.12,177.347,191.853,179.053z"/>
			<path d="M378.733,170.52l-55.467-31.695V75.8c0-3.413-1.707-5.973-4.267-7.68l-59.733-34.133c-2.56-1.707-5.973-1.707-8.533,0
				L191,68.12c-2.56,1.707-4.267,4.267-4.267,7.68v63.025l-55.467,31.695c-2.56,1.707-4.267,4.267-4.267,7.68v68.267
				c0,3.413,1.707,5.973,4.267,7.68L191,288.28c1.707,0.853,2.56,0.853,4.267,0.853s2.56,0,4.267-0.853L255,256.585l55.467,31.695
				c1.707,0.853,2.56,0.853,4.267,0.853s2.56,0,4.267-0.853l59.733-34.133c2.56-1.707,4.267-4.267,4.267-7.68V178.2
				C383,174.787,381.293,172.227,378.733,170.52z M255,51.907l51.2,29.013v57.905l-25.6,14.629L255,167.96l-25.6-14.507
				l-25.6-14.629V80.92L255,51.907z M195.267,270.36l-51.2-29.013V183.32l51.2-29.013l25.6,14.507l25.6,14.629v57.905
				L195.267,270.36z M365.933,241.347l-51.2,29.013l-51.2-29.013v-57.905l25.6-14.629l25.6-14.507l51.2,29.013V241.347z"/>
			<path d="M311.32,179.053l-25.6,11.093c-3.413,0.853-5.12,4.267-5.12,7.68V229.4c0,5.12,3.413,8.533,8.533,8.533
				s8.533-3.413,8.533-8.533v-25.6l20.48-9.387c4.267-1.707,5.973-6.827,4.267-11.093S315.587,177.347,311.32,179.053z"/>
			<path d="M255,391.533c16.213,0,29.867-13.653,29.867-29.867c0-16.213-13.653-29.867-29.867-29.867s-29.867,13.653-29.867,29.867
				C225.133,377.88,238.787,391.533,255,391.533z M255,348.867c6.827,0,12.8,5.973,12.8,12.8s-5.973,12.8-12.8,12.8
				s-12.8-5.973-12.8-12.8S248.173,348.867,255,348.867z"/>
		</g>
	</g>
</g>
</svg>