<?xml version="1.0" encoding="iso-8859-1"?>
<!-- Uploaded to: SVG Repo, www.svgrepo.com, Generator: SVG Repo Mixer Tools -->
<svg fill="#000000" height="800px" width="800px" version="1.1" id="Layer_1" xmlns="http://www.w3.org/2000/svg" xmlns:xlink="http://www.w3.org/1999/xlink" 
	 viewBox="0 0 512 512" xml:space="preserve">
<g>
	<g>
		<path d="M315.733,155.307l-30.72,17.067l-20.48,11.947v58.027l51.2,29.013l51.2-29.013V184.32L315.733,155.307z M319.147,195.413
			l-20.48,9.387v25.6c0,5.12-3.413,8.533-8.533,8.533s-8.533-3.413-8.533-8.533v-31.573c0-3.413,1.707-6.827,5.12-7.68l25.6-11.093
			c4.267-1.707,9.387,0,11.093,4.267C325.12,188.587,323.413,193.707,319.147,195.413z"/>
	</g>
</g>
<g>
	<g>
		<path d="M0,324.267v51.2c0,23.893,18.773,42.667,42.667,42.667H204.8v51.2c0,8.533-36.693,25.6-59.733,25.6
			c-5.12,0-8.533,3.413-8.533,8.533s3.413,8.533,8.533,8.533h221.867c5.12,0,8.533-3.413,8.533-8.533s-3.413-8.533-8.533-8.533
			c-23.04,0-59.733-17.067-59.733-25.6v-51.2h162.133c23.893,0,42.667-18.773,42.667-42.667v-51.2H0z M256,401.067
			c-16.213,0-29.867-13.653-29.867-29.867c0-16.213,13.653-29.867,29.867-29.867s29.867,13.653,29.867,29.867
			C285.867,387.413,272.213,401.067,256,401.067z"/>
	</g>
</g>
<g>
	<g>
		<path d="M469.333,0H42.667C18.773,0,0,18.773,0,42.667V307.2h512V42.667C512,18.773,493.227,0,469.333,0z M42.667,34.133h93.867
			c5.12,0,8.533,3.413,8.533,8.533s-3.413,8.533-8.533,8.533H42.667c-5.12,0-8.533-3.413-8.533-8.533S37.547,34.133,42.667,34.133z
			 M110.933,85.333H42.667c-5.12,0-8.533-3.413-8.533-8.533s3.413-8.533,8.533-8.533h68.267c5.12,0,8.533,3.413,8.533,8.533
			S116.053,85.333,110.933,85.333z M384,247.467c0,3.413-1.707,5.973-4.267,7.68L320,289.28c-1.707,0.853-2.56,0.853-4.267,0.853
			s-2.56,0-4.267-0.853L256,257.707l-55.467,31.573c-1.707,0.853-2.56,0.853-4.267,0.853s-2.56,0-4.267-0.853l-59.733-34.133
			c-2.56-1.707-4.267-4.267-4.267-7.68V179.2c0-3.413,1.707-5.973,4.267-7.68l55.467-31.573V76.8c0-3.413,1.707-5.973,4.267-7.68
			l59.733-34.133c2.56-1.707,5.973-1.707,8.533,0L320,69.12c2.56,1.707,4.267,4.267,4.267,7.68v63.147l55.467,31.573
			c2.56,1.707,4.267,4.267,4.267,7.68V247.467z"/>
	</g>
</g>
<g>
	<g>
		<circle cx="256" cy="371.2" r="12.8"/>
	</g>
</g>
<g>
	<g>
		<path d="M256,52.907L204.8,81.92v58.027l20.48,11.947l30.72,17.92l30.72-17.92l20.48-11.947V81.92L256,52.907z M259.413,93.013
			l-20.48,9.387V128c0,5.12-3.413,8.533-8.533,8.533s-8.533-3.413-8.533-8.533V96.427c0-3.413,1.707-6.827,5.12-7.68l25.6-11.093
			c4.267-1.707,9.387,0,11.093,4.267S263.68,91.307,259.413,93.013z"/>
	</g>
</g>
<g>
	<g>
		<path d="M226.987,172.373l-30.72-17.067l-51.2,29.013v58.027l51.2,29.013l51.2-29.013V184.32L226.987,172.373z M199.68,195.413
			L179.2,204.8v25.6c0,5.12-3.413,8.533-8.533,8.533s-8.533-3.413-8.533-8.533v-31.573c0-3.413,1.707-6.827,5.12-7.68l25.6-11.093
			c4.267-1.707,9.387,0,11.093,4.267S203.947,193.707,199.68,195.413z"/>
	</g>
</g>
</svg>